<svg width="72" height="72" viewBox="0 0 72 72" fill="none" xmlns="http://www.w3.org/2000/svg">
<path d="M52.5452 70.9978H13.9042C12.7711 71.044 10.5049 70.3873 10.5049 67.3904V64.8929H44.2204M17.9972 37.7679V60.3836H45.1222M17.9972 37.7679H13.1411M17.9972 37.7679H19.5234C21.0219 37.7679 21.3503 36.7967 21.3271 36.3111V33.6055M13.1411 37.7679V60.3836M13.1411 37.7679V33.6055M13.1411 33.6055H21.3271M13.1411 33.6055C12.2623 33.5593 10.5049 32.9673 10.5049 30.9693C10.5049 30.2717 10.9735 28.9164 12.7942 28.7635C12.9048 28.7542 13.0203 28.7494 13.1411 28.7494H17.2341H21.3271M21.3271 33.6055C22.6329 33.6055 23.2803 32.874 23.5645 32.1487M21.3271 28.7494C22.1365 28.7494 23.7552 29.235 23.7552 31.1774C23.7552 31.4427 23.703 31.795 23.5645 32.1487M21.3271 28.7494L22.4371 27.57H40.4048M23.5645 32.1487H40.4048M40.4048 32.1487V27.57M40.4048 32.1487V33.5361H51.6433M40.4048 27.57V11.7529M40.4048 11.7529V8.42295V6.203H67.9461H70.9985V11.7529M40.4048 11.7529H70.9985M70.9985 11.7529V33.5361H56.1526M51.6433 33.5361H56.1526M51.6433 33.5361V47.4108M56.1526 44.844L55.1814 48.1045L53.2389 49.1451L51.6433 48.1045V47.4108M56.1526 44.844V33.5361M56.1526 44.844H60.1069L61.0087 48.1045L62.8818 48.8677L65.6568 47.4108L68.5704 50.1857L67.183 53.3075L67.8767 55.1113L70.9985 56.0131V59.6899V60.1755L67.8767 60.8693L67.183 63.0892L68.5704 65.7948L65.6568 68.7084L63.2287 67.1822L61.0087 68.0841L60.315 70.859H56.1526L55.4589 68.0841L53.2389 67.1822L50.5334 68.7084L47.6197 65.7948L48.9378 63.0892L48.0359 60.8693L45.8853 60.3836H45.1222M45.1222 60.3836V56.0131L48.0359 55.1113L48.9378 52.8219L47.4116 50.3245L50.5334 47.4108H51.6433M42.6942 40.2654L40.6823 38.1841L38.6705 39.2941L37.0055 38.7391L36.3812 36.3111H33.19L32.4269 38.7391L30.9701 39.2941L28.7501 38.1841L26.6689 40.2654L27.7789 42.5547L27.1545 44.1503L24.7264 44.844V47.7577L27.1545 48.5902L27.7789 50.1857L26.6689 52.1976L29.0276 54.14L30.7619 53.0994L32.5656 53.9319L33.19 56.0131H36.3812L37.0055 53.9319L38.6705 53.3075L40.4048 54.14L42.6942 52.1976L41.6536 50.3245L42.3473 48.5902L44.4979 47.7577V44.844L42.3473 44.1503L41.6536 42.2078L42.6942 40.2654ZM38.7399 46.3008C38.7399 48.523 36.9384 50.3245 34.7162 50.3245C32.494 50.3245 30.6926 48.523 30.6926 46.3008C30.6926 44.0786 32.494 42.2772 34.7162 42.2772C36.9384 42.2772 38.7399 44.0786 38.7399 46.3008ZM65.1018 58.0249C65.1018 61.8946 61.9648 65.0317 58.0951 65.0317C54.2254 65.0317 51.0883 61.8946 51.0883 58.0249C51.0883 54.1552 54.2254 51.0182 58.0951 51.0182C61.9648 51.0182 65.1018 54.1552 65.1018 58.0249ZM60.6619 58.0249C60.6619 59.4426 59.5127 60.5918 58.0951 60.5918C56.6774 60.5918 55.5282 59.4426 55.5282 58.0249C55.5282 56.6073 56.6774 55.4581 58.0951 55.4581C59.5127 55.4581 60.6619 56.6073 60.6619 58.0249Z" stroke="#191919" stroke-width="2" stroke-linecap="round"/>
<path d="M51.1292 20.2858L46.273 22.7833L51.1292 25.4888M57.4709 18.274L54.4185 26.1825M60.9972 20.2858L65.9227 22.7833L60.9972 25.4888M17.2344 22.0201C18.9968 22.0201 20.4255 20.5914 20.4255 18.829C20.4255 17.0665 18.9968 15.6378 17.2344 15.6378C15.4719 15.6378 14.0432 17.0665 14.0432 18.829C14.0432 20.5914 15.4719 22.0201 17.2344 22.0201ZM17.2344 22.0201V28.7494M9.95015 17.2334C9.81175 14.9209 11.1026 10.1989 17.3731 9.81042M3.2903 15.6378H1.00098M6.55083 8.14546L4.74713 6.34175M17.2344 3.42807V1M27.9872 8.14546L29.7909 6.34175M30.9703 15.6378H33.6065M17.2344 28.7494H13.1413C13.0206 28.7494 12.905 28.7542 12.7945 28.7635L12.1701 27.57C6.55083 20.4939 6.38896 19.014 6.55083 16.1234C6.66646 12.8629 8.99278 6.34175 17.3731 6.34175C25.7534 6.34175 27.941 12.8629 27.9872 16.1234C27.9872 21.7288 24.2873 26.0901 22.4373 27.57L21.3274 28.7494H17.2344Z" stroke="#F75709" stroke-width="2" stroke-linecap="round"/>
</svg>
