<svg width="72" height="72" viewBox="0 0 72 72" fill="none" xmlns="http://www.w3.org/2000/svg">
<path d="M18.6693 5.58333L27.0159 14.125V19.4028M27.0159 19.4028H21.9514M27.0159 19.4028H31.4559M31.4559 19.4028V14.125M31.4559 19.4028H35.8959M35.8959 19.4028V1M35.8959 19.4028H40.4054M40.4054 19.4028V13.5M40.4054 19.4028H44.9148M44.9148 19.4028V8.36111M44.9148 19.4028H45.6085C50.8811 19.4028 52.6848 20.4861 52.6848 26.2083V27.1111M52.6848 27.1111H58.0268C61.4064 23.8226 63.0882 22.0925 66.5325 18.8706M52.6848 27.1111V31.4861M52.6848 31.4861H58.0268M52.6848 31.4861V36M52.6848 36H70.3756M52.6848 36V40.4444M52.6848 40.4444H58.3043M52.6848 40.4444V45.0972M52.6848 49.75V45.0972M52.6848 45.0972C57.0468 45.0972 59.2923 45.0972 63.6543 45.0972M49.4242 52.7361H44.8801M19.1764 22.1111V27.1111M19.1764 27.1111H8.28444M19.1764 27.1111V31.4861M19.1764 31.4861H13.2795M19.1764 31.4861V36M19.1764 36H1M19.1764 36V40.3056M19.1764 40.3056H13.2795M19.1764 40.3056V44.8889M19.1764 44.8889V47.9444C19.1764 51.7222 22.3677 52.713 23.9633 52.7361H27.0159M19.1764 44.8889H14.1814L5.64817 52.9659M27.0159 52.7361C27.0159 52.7361 27.0159 59.2997 27.0159 63.6389M27.0159 52.7361H31.3865M31.3865 52.7361V58.7083M31.3865 52.7361H35.8959M35.8959 52.7361V70.7222M35.8959 52.7361H40.336M40.336 52.7361V58.7083M40.336 52.7361H44.8801M44.8801 52.7361V58.0139L52.9415 66.6M57.5411 68.3611C57.5411 69.8185 56.3608 71 54.9049 71C53.4489 71 52.2686 69.8185 52.2686 68.3611C52.2686 66.9037 53.4489 65.7222 54.9049 65.7222C56.3608 65.7222 57.5411 66.9037 57.5411 68.3611Z" stroke="#191919" stroke-width="2" stroke-linecap="round"/>
<path d="M35.8959 31.8333V36.3819M35.8959 45.0972C35.4103 46.0232 33.8285 47.6806 31.3865 46.9028C30.1538 46.6081 28.3004 45.5163 28.7403 43.2917M35.8959 45.0972C36.4509 46.8194 38.8559 47.25 39.9891 47.25C43.4301 46.6944 43.6428 44.3796 43.3191 43.2917M35.8959 45.0972V40.9306M29.5827 41.3472C29.1176 42.0739 28.8533 42.7202 28.7403 43.2917M28.7403 43.2917C26.6731 42.0911 24.0904 39.3029 27.3627 36.4721M29.999 34.8194C28.865 35.3643 28.0021 35.919 27.3627 36.4721M27.3627 36.4721C25.7439 34.5324 24.0743 30.4028 30.3458 29.4028C29.6983 28.5463 28.9028 26.5417 30.9009 25.375C32.2884 24.6111 35.2299 23.9583 35.8959 27.4583C36.2196 26.4861 37.4222 24.625 39.6422 24.9583C40.8216 25.1435 42.9028 26.2917 41.7928 29.4028M41.7928 29.4028C41.1453 29.4259 39.7393 29.5556 39.2953 29.8889M41.7928 29.4028C42.9953 29.5185 45.4836 30.375 45.8166 32.875C45.9091 33.7685 45.6224 35.7388 43.7353 36.4721C45.2847 37.4953 47.5094 40.2222 44.0128 42.9444L43.3191 43.2917M43.3191 43.2917C43.0416 42.4815 42.112 40.7778 40.6134 40.4444M35.8959 40.9306C35.6646 40.1667 34.772 38.5694 33.0515 38.2917M35.8959 40.9306V36.3819M35.8959 36.3819C36.1503 35.4907 37.325 33.7222 39.9891 33.7778M44.9147 8.36111C46.3707 8.36111 47.551 7.17964 47.551 5.72222C47.551 4.2648 46.3707 3.08333 44.9147 3.08333C43.4588 3.08333 42.2785 4.2648 42.2785 5.72222C42.2785 7.17964 43.4588 8.36111 44.9147 8.36111ZM8.2844 27.1111C8.2844 28.5685 7.1041 29.75 5.64813 29.75C4.19215 29.75 3.01185 28.5685 3.01185 27.1111C3.01185 25.6537 4.19215 24.4722 5.64813 24.4722C7.1041 24.4722 8.2844 25.6537 8.2844 27.1111ZM27.0158 63.6389C25.5598 63.6389 24.3795 64.8204 24.3795 66.2778C24.3795 67.7352 25.5598 68.9167 27.0158 68.9167C28.4718 68.9167 29.6521 67.7352 29.6521 66.2778C29.6521 64.8204 28.4718 63.6389 27.0158 63.6389ZM6.34188 54.75C6.34188 56.2074 5.16158 57.3889 3.70561 57.3889C2.24964 57.3889 1.06934 56.2074 1.06934 54.75C1.06934 53.2926 2.24964 52.1111 3.70561 52.1111C5.16158 52.1111 6.34188 53.2926 6.34188 54.75ZM57.5411 68.3611C57.5411 69.8185 56.3608 71 54.9048 71C53.4488 71 52.2685 69.8185 52.2685 68.3611C52.2685 66.9037 53.4488 65.7222 54.9048 65.7222C56.3608 65.7222 57.5411 66.9037 57.5411 68.3611ZM68.9187 44.8889C68.9187 46.3463 67.7384 47.5278 66.2824 47.5278C64.8264 47.5278 63.6461 46.3463 63.6461 44.8889C63.6461 43.4315 64.8264 42.25 66.2824 42.25C67.7384 42.25 68.9187 43.4315 68.9187 44.8889ZM71 16.9722C71 18.4296 69.8197 19.6111 68.3637 19.6111C66.9077 19.6111 65.7274 18.4296 65.7274 16.9722C65.7274 15.5148 66.9077 14.3333 68.3637 14.3333C69.8197 14.3333 71 15.5148 71 16.9722ZM19.5233 3.63889C19.5233 5.09631 18.343 6.27778 16.887 6.27778C15.431 6.27778 14.2507 5.09631 14.2507 3.63889C14.2507 2.18147 15.431 1 16.887 1C18.343 1 19.5233 2.18147 19.5233 3.63889Z" stroke="#F75709" stroke-width="2" stroke-linecap="round"/>
</svg>
