<svg width="70" height="70" viewBox="0 0 70 70" fill="none" xmlns="http://www.w3.org/2000/svg">
<g clip-path="url(#clip0_106_177)">
<path d="M65.8362 44.0245C66.3152 45.7218 66.5714 47.5124 66.5714 49.363C66.5714 60.1943 57.7909 68.9746 46.9598 68.9746C41.101 68.9746 35.8421 66.4055 32.2486 62.3323M38.9105 16.2642C38.0987 15.8655 37.0905 16.0018 36.4153 16.6771L34.0947 18.9976C33.4651 19.6272 32.5118 19.8172 31.6976 19.4566C31.4447 19.3445 31.1886 19.2385 30.9293 19.1388C30.098 18.8192 29.5585 18.0096 29.5585 17.1191V13.8372C29.5585 12.6364 28.5851 11.6628 27.3843 11.6628H22.4311C21.2303 11.6628 20.2569 12.6362 20.2569 13.8372V17.1191C20.2569 18.0097 19.7172 18.8192 18.8861 19.1388C18.6269 19.2385 18.3707 19.3445 18.1178 19.4566C17.3036 19.8174 16.3503 19.6273 15.7207 18.9976L13.4003 16.677C12.5511 15.8279 11.1745 15.8279 10.3254 16.677L6.82303 20.1794C5.97387 21.0284 5.97387 22.4052 6.82303 23.2544L9.14355 25.5749C9.77314 26.2045 9.96318 27.1578 9.60252 27.972C9.49041 28.2249 9.38445 28.481 9.28478 28.7403C8.96514 29.5716 8.15549 30.1111 7.26504 30.1111H3.98283C2.78203 30.1111 1.80859 31.0845 1.80859 32.2853V37.2385C1.80859 38.4393 2.78203 39.4127 3.98283 39.4127H7.26477C8.15535 39.4127 8.96486 39.9524 9.28451 40.7835C9.38393 41.0422 9.48988 41.2984 9.60225 41.5518C9.96305 42.366 9.77301 43.3192 9.14328 43.9489L6.82275 46.2695C5.97359 47.1186 5.97359 48.4952 6.82275 49.3444L10.3251 52.8469C11.1742 53.6959 12.5509 53.6959 13.4 52.8469L15.7205 50.5263C16.3501 49.8967 17.3035 49.7067 18.1176 50.0674C18.3706 50.1795 18.6266 50.2854 18.886 50.3851C19.7172 50.7047 20.2567 51.5144 20.2567 52.4048V55.6868C20.2567 56.8876 21.2302 57.8612 22.431 57.8612H27.3842C28.585 57.8612 29.5584 56.8877 29.5584 55.6868V52.4048C29.5584 51.5143 30.098 50.7047 30.9291 50.3851C31.1884 50.2854 31.4446 50.1795 31.6975 50.0674C32.4391 49.7387 33.2953 49.8684 33.9181 50.3698" stroke="#191919" stroke-width="2" stroke-miterlimit="10" stroke-linecap="round" stroke-linejoin="round"/>
<path d="M15.4619 37.1544C16.5285 41.3779 20.3523 44.5041 24.9071 44.5041C30.2876 44.5041 34.6494 40.1424 34.6494 34.7618C34.6494 29.3813 30.2877 25.0195 24.9073 25.0195C20.3525 25.0195 16.5286 28.1457 15.4621 32.3693" stroke="#191919" stroke-width="2" stroke-miterlimit="10" stroke-linecap="round" stroke-linejoin="round"/>
<path d="M24.908 39.5155C27.5334 39.5155 29.6617 37.3872 29.6617 34.7618C29.6617 32.1364 27.5334 30.0081 24.908 30.0081C22.2826 30.0081 20.1543 32.1364 20.1543 34.7618C20.1543 37.3872 22.2826 39.5155 24.908 39.5155Z" stroke="#191919" stroke-width="2" stroke-miterlimit="10" stroke-linecap="round" stroke-linejoin="round"/>
<path d="M56.544 13.2545H47.2049C47.085 13.2545 46.9662 13.2308 46.8554 13.185C46.7446 13.1391 46.6439 13.0718 46.5591 12.987C46.4743 12.9022 46.407 12.8015 46.3611 12.6907C46.3152 12.5799 46.2916 12.4611 46.2916 12.3412V7.00314C46.2916 3.67691 43.5764 0.99039 40.2503 1.02566C39.8935 1.02948 39.5527 1.17386 39.3018 1.42746C39.0509 1.68105 38.9102 2.02339 38.9102 2.38014V5.87891M55.4437 39.4089H57.8095M38.9102 10.6641V32.0473C38.9102 34.229 39.8601 36.1881 41.3678 37.5361" stroke="#191919" stroke-width="2" stroke-miterlimit="10" stroke-linecap="round" stroke-linejoin="round"/>
<path d="M39.9253 60.3917C41.9565 61.69 44.3702 62.4426 46.9596 62.4426C54.1833 62.4426 60.0394 56.5867 60.0394 49.3629C60.0394 42.139 54.1834 36.2831 46.9596 36.2831C39.7358 36.2831 33.8799 42.139 33.8799 49.3629C33.8799 52.2673 34.8272 54.9503 36.4289 57.1208" stroke="#F75709" stroke-width="2" stroke-miterlimit="10" stroke-linecap="round" stroke-linejoin="round"/>
<path d="M65.7672 36.1397C65.7672 34.334 64.3035 32.8703 62.4979 32.8703H57.8094C56.0038 32.8703 54.54 34.334 54.54 36.1397C54.54 37.9453 56.0038 39.409 57.8094 39.409H62.4979C64.3035 39.4089 65.7672 37.9452 65.7672 36.1397Z" stroke="#191919" stroke-width="2" stroke-miterlimit="10" stroke-linecap="round" stroke-linejoin="round"/>
<path d="M40.4941 48.7315L45.4412 54.3875L53.4253 45.3511" stroke="#F75709" stroke-width="2" stroke-miterlimit="10" stroke-linecap="round" stroke-linejoin="round"/>
<path d="M64.9227 26.3318H56.5447C54.7391 26.3318 53.2754 27.7955 53.2754 29.6011C53.2754 31.4068 54.7391 32.8705 56.5447 32.8705H64.9227C66.7284 32.8705 68.1921 31.4068 68.1921 29.6011C68.1921 27.7955 66.7284 26.3318 64.9227 26.3318ZM64.9227 13.2545H56.5447C54.7391 13.2545 53.2754 14.7182 53.2754 16.5238C53.2754 18.3295 54.7391 19.7932 56.5447 19.7932H64.9227C66.7284 19.7932 68.1921 18.3295 68.1921 16.5238C68.1921 14.7182 66.7284 13.2545 64.9227 13.2545Z" stroke="#191919" stroke-width="2" stroke-miterlimit="10" stroke-linecap="round" stroke-linejoin="round"/>
<path d="M64.9227 19.793H56.5447C54.7391 19.793 53.2754 21.2568 53.2754 23.0624C53.2754 24.868 54.7391 26.3318 56.5447 26.3318H64.9227C66.7284 26.3318 68.1921 24.868 68.1921 23.0624C68.1921 21.2568 66.7284 19.793 64.9227 19.793Z" stroke="#191919" stroke-width="2" stroke-miterlimit="10" stroke-linecap="round" stroke-linejoin="round"/>
</g>
<defs>
<clipPath id="clip0_106_177">
<rect width="70" height="70" fill="white"/>
</clipPath>
</defs>
</svg>
