<svg width="72" height="72" viewBox="0 0 72 72" fill="none" xmlns="http://www.w3.org/2000/svg">
<path d="M51.5309 58.3125H60.2809L63.708 67.3542H8.51009L12.0101 58.3125H20.6143M23.1663 54.6667H9.38509C7.00315 60.1111 2.23926 71 2.23926 71H69.7601L62.6872 54.6667H49.1976M62.1038 9.23958V4.57292H54.8122V11.5H59.4059M62.1038 9.23958H59.4059V11.5M62.1038 9.23958H68.6663V18.5729H62.1038M59.4059 11.5V15.875M59.4059 15.875V18.5729H62.1038M59.4059 15.875H55.9788V21.9271H62.1038V18.5729M8.21842 26.5938V29H10.5518M8.21842 26.5938V19.5938H17.4788V29H10.5518M8.21842 26.5938H3.40592V33.7396H10.5518V29M53.6455 36.1458V40.6667H58.2393V36.1458H53.6455ZM32.7184 1H39.5726V7.92708H32.7184V1ZM10.5518 7.92708H16.2393V13.6146H10.5518V7.92708Z" stroke="#191919" stroke-width="2" stroke-linecap="round"/>
<path d="M29.1458 44.6042V54.4688M29.1458 58.3125V60.1354M33.8125 45.0729V48.8542M33.8125 52.5521V54.6667M33.8125 58.2917V62.6146M38.4062 62.6146V53.5729M38.4062 50.0208V43.0729M43.1458 45.4792V54.4688M43.1458 58.3125V60.1354M28.3438 27.8333L37.8229 14.7812V25.0625H43.875L34.6875 37.8958V27.8333H28.3438Z" stroke="#F75709" stroke-width="2" stroke-linecap="round"/>
</svg>
